<?xml version="1.0" encoding="utf-8"?>
<!-- Generator: Adobe Illustrator 23.0.3, SVG Export Plug-In . SVG Version: 6.00 Build 0)  -->
<svg version="1.1" id="checker-dials-animate-280x100v2" image-rendering="auto"
	 xmlns="http://www.w3.org/2000/svg" xmlns:xlink="http://www.w3.org/1999/xlink" x="0px" y="0px" viewBox="0 0 270 100"
	 style="enable-background:new 0 0 270 100;" xml:space="preserve">
<style type="text/css">
	.st0{fill:#6E6E70;}
	.st1{fill:#F58200;}
</style>
<g id="Scene-1">
	<path class="st0" d="M60.3,49.2c-1.3-1-2.8-1.7-4.3-2.4c-1.5-0.6-3.1-1.1-4.7-1.4c-1.6-0.3-3.3-0.5-4.9-0.5c-1.7,0-3.4,0.2-5,0.5
		s-3.2,0.8-4.6,1.4c-1.5,0.7-3,1.4-4.3,2.4c-1.4,0.9-2.7,1.9-3.9,3.1c-1.2,1.2-2.2,2.5-3.1,3.9c-1,1.4-1.7,2.8-2.3,4.2
		c-0.7,1.5-1.2,3.1-1.4,4.7c-0.3,1.6-0.5,3.3-0.5,4.9c0,1.3,0.1,2.5,0.3,3.8c0.2,1.3,0.5,2.4,0.9,3.6c0.3,1.2,0.8,2.3,1.3,3.5
		c0.5,1.2,1.2,2.2,1.8,3.2c0.1,0.2,0.3,0.3,0.5,0.4s0.4,0.2,0.6,0.2h39.7c0.2,0,0.5,0,0.7-0.2c0.2-0.1,0.4-0.2,0.5-0.4
		c0.7-1.1,1.4-2.1,1.8-3.2c0.5-1.1,1-2.3,1.4-3.5c0.4-1.2,0.7-2.3,0.9-3.6c0.2-1.3,0.2-2.5,0.2-3.8c0-1.6-0.2-3.3-0.5-4.9
		s-0.8-3.2-1.4-4.7c-0.6-1.4-1.4-2.9-2.3-4.2c-1-1.3-2-2.7-3.2-3.9C62.9,51.2,61.6,50.1,60.3,49.2 M44.8,47.6v1.3
		c0,0.4,0.1,0.7,0.4,1c0.3,0.3,0.6,0.4,1,0.4s0.7-0.1,1-0.4c0.3-0.3,0.4-0.6,0.4-1v-1.3c2.9,0.2,5.6,0.8,8.1,1.9
		c2.5,1.2,4.6,2.7,6.6,4.6c1.9,1.8,3.5,4.1,4.6,6.6c1.2,2.5,1.8,5.1,2,8h-1.3c-0.4,0-0.7,0.1-1,0.4c-0.3,0.3-0.4,0.6-0.4,0.9
		c0,0.4,0.1,0.7,0.4,1c0.3,0.3,0.6,0.4,1,0.4h1.3c0,1-0.2,1.8-0.3,2.8c-0.2,1-0.4,1.8-0.7,2.7c-0.3,0.9-0.7,1.7-1,2.6
		c-0.4,0.9-0.9,1.6-1.4,2.5H27.1c-0.5-0.8-1-1.6-1.4-2.5s-0.8-1.7-1.1-2.6c-0.3-0.9-0.5-1.8-0.7-2.7c-0.2-1-0.3-1.8-0.4-2.8h1.4
		c0.4,0,0.7-0.1,0.9-0.4c0.3-0.3,0.4-0.6,0.4-1c0-0.4-0.1-0.7-0.4-0.9c-0.3-0.3-0.6-0.4-0.9-0.4h-1.3c0.2-2.9,0.8-5.5,1.9-8
		c1.2-2.5,2.7-4.7,4.6-6.6c1.9-1.9,4.1-3.5,6.7-4.6C39.5,48.4,42,47.8,44.8,47.6 M34,60.6c-0.2,0.2-0.4,0.5-0.4,0.8s0,0.6,0.2,0.9
		c0.4,0.5,1.1,1.4,2,2.8c1,1.4,1.9,2.7,2.9,4.2c1.1,1.4,2,2.8,2.9,4c0.9,1.3,1.4,2,1.7,2.3c0.4,0.4,0.8,0.7,1.3,0.9
		c0.5,0.2,1,0.3,1.5,0.3c0.5,0,1-0.1,1.4-0.3c0.5-0.2,1-0.5,1.3-0.9c0.4-0.4,0.7-0.9,0.9-1.4c0.2-0.5,0.3-1,0.3-1.4
		c0-0.6-0.1-1.1-0.3-1.5c-0.2-0.5-0.5-1-0.9-1.4c-0.3-0.3-1-0.9-2.2-1.7s-2.6-1.8-4.1-2.9c-1.5-1.1-2.9-2-4.2-3s-2.3-1.5-2.8-1.9
		c-0.3-0.2-0.6-0.2-0.9-0.2C34.5,60.2,34.2,60.4,34,60.6 M43.6,71.4c-0.5-0.6-1-1.3-1.4-2.1c-0.6-0.8-1.2-1.6-1.8-2.5
		c0.9,0.6,1.7,1.2,2.5,1.7c0.8,0.6,1.4,1.1,2,1.5c0.6,0.4,1.2,0.8,1.4,1.2c0.4,0.3,0.7,0.5,0.8,0.6c0.3,0.3,0.4,0.6,0.4,1
		c0,0.4-0.1,0.7-0.4,0.9c-0.1,0.1-0.3,0.2-0.5,0.3c0,0.2-0.2,0.2-0.3,0.2c-0.2,0-0.4,0-0.5-0.1c-0.2-0.1-0.3-0.2-0.5-0.3
		c-0.1-0.1-0.3-0.4-0.6-0.8C44.4,72.6,44,72.1,43.6,71.4 M239,49.2c-1.4-1-2.8-1.7-4.3-2.4c-1.5-0.6-3.1-1.1-4.7-1.4
		c-1.6-0.3-3.3-0.5-4.9-0.5c-1.7,0-3.4,0.2-4.9,0.5c-1.6,0.3-3.2,0.8-4.7,1.4c-1.5,0.7-3,1.4-4.3,2.4c-1.3,0.9-2.7,1.9-3.9,3.1
		c-1.2,1.2-2.2,2.5-3.1,3.9c-1,1.4-1.7,2.8-2.3,4.2c-0.7,1.5-1.2,3.1-1.4,4.7c-0.3,1.6-0.5,3.3-0.5,4.9c0,1.3,0.1,2.5,0.3,3.8
		c0.2,1.3,0.4,2.4,0.8,3.6c0.3,1.2,0.8,2.3,1.3,3.5c0.6,1.2,1.2,2.2,1.8,3.2c0.1,0.2,0.3,0.3,0.5,0.4s0.4,0.2,0.7,0.2h39.6
		c0.2,0,0.4,0,0.6-0.2c0.2-0.1,0.4-0.2,0.5-0.4c0.7-1.1,1.4-2.1,1.8-3.2c0.5-1.2,1-2.3,1.4-3.5c0.4-1.2,0.6-2.3,0.8-3.6
		c0.2-1.3,0.2-2.5,0.2-3.8c0-1.6-0.2-3.3-0.5-4.9c-0.3-1.6-0.8-3.2-1.4-4.7c-0.6-1.4-1.3-2.9-2.2-4.2c-1-1.3-2-2.7-3.2-3.9
		C241.7,51.2,240.4,50.1,239,49.2 M234.4,49.6c2.5,1.2,4.6,2.7,6.6,4.6c1.9,1.8,3.5,4,4.6,6.6c1.2,2.5,1.8,5.1,2,8h-1.3
		c-0.4,0-0.7,0.1-1,0.4c-0.3,0.3-0.4,0.6-0.4,0.9c0,0.4,0.1,0.7,0.4,1c0.3,0.3,0.6,0.4,1,0.4h1.3c0,1-0.1,1.8-0.4,2.8
		c-0.2,1-0.4,1.8-0.7,2.7s-0.6,1.7-1.1,2.6c-0.4,0.9-0.9,1.6-1.3,2.5H206c-0.5-0.8-1-1.6-1.3-2.5s-0.8-1.7-1.1-2.6
		c-0.3-0.9-0.5-1.8-0.7-2.7c-0.2-1-0.3-1.8-0.3-2.8h1.3c0.4,0,0.7-0.1,0.9-0.4c0.3-0.3,0.4-0.6,0.4-1c0-0.4-0.1-0.7-0.4-0.9
		c-0.3-0.3-0.6-0.4-0.9-0.4h-1.3c0.2-2.9,0.8-5.5,1.9-8s2.7-4.7,4.6-6.6c1.9-1.9,4.1-3.5,6.7-4.6c2.5-1.2,5.2-1.8,8-1.9v1.3
		c0,0.4,0.1,0.7,0.4,1c0.3,0.3,0.6,0.4,1,0.4s0.7-0.1,0.9-0.4c0.3-0.3,0.4-0.6,0.4-1v-1.3C229.3,47.8,232,48.5,234.4,49.6
		 M225.9,55.8c-0.3-0.2-0.6-0.3-0.9-0.3c-0.4,0-0.7,0.1-0.9,0.3c-0.3,0.2-0.4,0.5-0.5,0.8c-0.1,0.6-0.3,1.7-0.6,3.4
		c-0.3,1.6-0.6,3.3-0.9,5.1c-0.3,1.7-0.6,3.4-0.9,4.8c-0.2,1.5-0.3,2.5-0.3,2.9c0,1.1,0.4,2,1.2,2.8c0.8,0.8,1.7,1.2,2.8,1.2
		s2-0.4,2.8-1.2c0.8-0.8,1.2-1.7,1.2-2.8c0-0.4-0.1-1.3-0.4-2.9c-0.3-1.5-0.5-3.1-0.8-4.8c-0.3-1.8-0.7-3.5-1-5.1
		c-0.3-1.6-0.5-2.8-0.6-3.4C226.3,56.3,226.2,56.1,225.9,55.8 M223.8,71.9c0.1-0.5,0.2-1.1,0.3-1.8c0.1-0.8,0.2-1.6,0.4-2.6
		s0.4-1.9,0.6-3c0.2,1.1,0.4,2,0.5,3c0.2,1,0.3,1.8,0.4,2.5c0.1,0.8,0.2,1.4,0.3,1.9c0.1,0.5,0.1,0.8,0.1,1c0,0.4-0.1,0.7-0.4,0.9
		c-0.3,0.3-0.6,0.4-0.9,0.4c-0.4,0-0.7-0.1-1-0.4c-0.3-0.3-0.4-0.6-0.4-0.9C223.8,72.7,223.8,72.4,223.8,71.9z"/>
	<g id="speedo-bg" transform="matrix(1 0 0 1.004 140.55 63)">
		<path class="st1" d="M30.9-27.2c-1.5-2.3-3.4-4.5-5.3-6.5c-2-2-4.2-3.8-6.6-5.3c-2.2-1.5-4.6-2.9-7.3-4c-2.7-1.1-5.4-1.8-7.9-2.4
			c-2.8-0.6-5.6-0.8-8.3-0.8c-2.8,0-5.6,0.3-8.4,0.8c-2.5,0.5-5.2,1.3-7.9,2.4c-2.7,1.1-5.1,2.4-7.3,4c-2.3,1.5-4.4,3.3-6.6,5.3
			c-2,1.9-3.8,4.1-5.3,6.5c-1.5,2.4-2.9,4.8-3.9,7.3c-1.1,2.7-1.9,5.3-2.4,7.9c-0.6,2.8-0.9,5.6-0.9,8.4c0,2.2,0.2,4.3,0.5,6.3
			c0.3,1.8,0.7,3.9,1.3,6.1c0.6,1.8,1.3,3.8,2.2,5.9c1,2,2,3.9,3.1,5.4c0.2,0.3,0.5,0.6,0.8,0.8c0.4,0.2,0.8,0.2,1.1,0.2H29
			c0.3,0,0.7-0.1,1.1-0.2c0.3-0.2,0.6-0.4,0.8-0.8c1.1-1.6,2.1-3.4,3.1-5.4c1-2.1,1.7-4.1,2.2-5.9c0.7-2.2,1.1-4.2,1.4-6.1
			C37.8,0.4,38-1.7,38-3.5c0-2.8-0.3-5.6-0.9-8.4c-0.5-2.6-1.4-5.2-2.4-7.9C33.8-22.3,32.6-24.7,30.9-27.2 M-4.5-37.2
			c0.7,0,1.2-0.2,1.6-0.7s0.6-1,0.6-1.6v-2.1c4.8,0.3,9.4,1.4,13.6,3.3c4.2,2,8,4.6,11.2,7.7c3.2,3.2,5.8,6.9,7.7,11.1
			c1.9,4.2,3.1,8.8,3.4,13.6h-2.1c-0.7,0-1.2,0.2-1.6,0.7s-0.7,1-0.7,1.5s0.2,1.3,0.6,1.8c0.4,0.5,1,0.7,1.6,0.7h2.2
			c-0.1,1.5-0.3,3.1-0.6,4.7c-0.3,1.5-0.7,3.1-1.2,4.6c-0.5,1.5-1.1,3-1.7,4.4c-0.6,1.3-1.4,2.8-2.2,4.2h-64.7
			c-0.8-1.2-1.5-2.6-2.3-4.2c-0.6-1.2-1.1-2.7-1.7-4.4c-0.5-1.4-0.9-3-1.2-4.6c-0.3-1.3-0.5-2.9-0.6-4.7h2.1c0.7,0,1.2-0.2,1.6-0.7
			c0.4-0.4,0.6-1,0.6-1.5s-0.2-1.2-0.6-1.5c-0.4-0.4-1-0.7-1.6-0.7h-2.1c0.3-4.8,1.4-9.4,3.4-13.6c1.9-4.1,4.5-7.9,7.7-11.1
			c3.1-3.2,6.8-5.8,11.2-7.7c4.2-1.9,8.8-3.1,13.6-3.3v2.1c0,0.7,0.2,1.2,0.6,1.6C-5.8-37.1-5.2-37.2-4.5-37.2z"/>
	</g>
	<g id="speedo-needle" transform="matrix(.434 .901 -.901 .434 141.5 60)">
		
			<animateTransform  accumulate="none" additive="replace" attributeName="transform" calcMode="linear" dur="7.583s" fill="remove" keyTimes="0;.005;.011;.016;.022;.027;.033;.038;.044;.049;.055;.06;.066;.071;.077;.082;.088;.093;.099;.104;.11;.115;.121;.126;.132;.137;.143;.148;.154;.159;.165;.17;.176;.181;.187;.352;.357;.363;.368;.374;.379;.385;.39;.396;.401;.407;.412;.418;.423;.429;.434;.44;.445;.451;.456;.462;.467;.473;.478;.484;.489;.495;.5;.506;.511;.517;.522;.527;.533;.538;.544;.549;.555;.56;.566;.571;.577;.582;.588;.593;.599;.604;.61;.615;.621;.626;.632;.637;.643;.648;.654;.659;.665;.67;.676;.681;.687;.692;.698;.703;.709;.714;.72;.725;.731;.736;.742;.747;.753;.758;.764;.769;.775;.78;.786;.791;.797;.802;.808;.813;.819;.824;.83;.835;.846;.852;.857;.863;.868;.874;.879;.885;.89;.896;.901;.907;.912;.918;.923;.929;.934;.94;.945;.951;.956;.962;.967;.973;.978;.984;.989;1" repeatCount="indefinite" restart="always" type="translate" values="141.545,59.978;141.592,60.063;141.588,60.03;141.56,59.981;141.582,60.038;141.582,60.057;141.607,60.032;141.589,59.932;141.65,59.997;141.592,59.977;141.616,59.976;141.579,59.978;141.598,59.919;141.594,59.953;141.605,59.994;141.5,59.95;141.514,59.948;141.554,59.968;141.568,59.969;141.589,59.921;141.604,59.939;141.47,59.945;141.502,59.992;141.484,59.857;141.461,60.011;141.434,59.973;141.449,59.963;141.494,60.003;141.45,59.949;141.458,59.991;141.465,59.983;141.459,59.975;141.491,60.012;141.464,59.979;141.486,59.971;141.486,59.971;141.478,60.008;141.512,59.983;141.509,59.926;141.508,59.991;141.505,59.945;141.502,59.996;141.447,60.002;141.495,59.958;141.483,60.021;141.438,59.959;141.473,60.006;141.449,59.963;141.496,59.984;141.481,59.913;141.495,59.971;141.493,59.925;141.568,59.936;141.47,59.945;141.569,59.972;141.531,59.939;141.542,59.923;141.561,59.9;141.597,59.953;141.573,59.919;141.558,59.94;141.512,60.049;141.549,60.001;141.5,59.95;141.551,59.949;141.604,59.995;141.554,59.945;141.605,59.994;141.547,59.953;141.579,59.967;141.627,59.993;141.545,59.921;141.542,59.976;141.55,59.95;141.588,60.031;141.54,59.929;141.61,60.015;141.592,59.977;141.62,59.892;141.535,60.006;141.55,60;141.545,60.059;141.566,60.024;141.634,60.044;141.598,60.088;141.532,60.068;141.611,59.997;141.566,60.023;141.535,60.022;141.616,59.975;141.611,60.002;141.617,60.022;141.566,59.976;141.645,60.057;141.602,60.07;141.576,60.112;141.588,60.068;141.588,60.068;141.566,60.024;141.634,60.044;141.598,60.088;141.532,60.068;141.639,60.067;141.535,60.022;141.616,59.975;141.611,60.002;141.617,60.022;141.566,59.976;141.645,60.057;141.554,60.019;141.588,60.068;141.588,60.068;141.566,60.024;141.634,60.044;141.598,60.088;141.532,60.068;141.639,60.067;141.535,60.022;141.616,59.975;141.611,60.002;141.617,60.022;141.566,59.976;141.645,60.057;141.588,60.068;141.588,60.068;141.566,60.024;141.573,60.044;141.532,60.068;141.611,59.997;141.566,60.023;141.535,60.022;141.616,60.024;141.617,60.022;141.595,59.979;141.556,60.089;141.645,60.057;141.588,60.068;141.588,60.068;141.616,60.024;141.566,60.024;141.573,60.044;141.532,60.068;141.611,59.997;141.566,60.023;141.535,60.022;141.616,60.024;141.617,60.022;141.566,59.976;141.645,60.057;141.554,60.019;141.588,60.068;141.588,60.068">
			</animateTransform>
		
			<animateTransform  accumulate="none" additive="sum" attributeName="transform" calcMode="linear" dur="7.583s" fill="remove" keyTimes="0;.005;.011;.016;.022;.027;.033;.038;.044;.049;.055;.06;.066;.071;.077;.082;.088;.093;.099;.104;.11;.115;.121;.126;.132;.137;.143;.148;.154;.159;.165;.17;.176;.181;.187;.352;.357;.363;.368;.374;.379;.385;.39;.396;.401;.407;.412;.418;.423;.429;.434;.44;.445;.451;.456;.462;.467;.473;.478;.484;.489;.495;.5;.506;.511;.517;.522;.527;.533;.538;.544;.549;.555;.56;.566;.571;.577;.582;.588;.593;.599;.604;.61;.615;.621;.626;.632;.637;.643;.648;.654;.659;.665;.67;.676;.681;.687;.692;.698;.703;.709;.714;.72;.725;.731;.736;.742;.747;.753;.758;.764;.769;.775;.78;.786;.791;.797;.802;.808;.813;.819;.824;.83;.835;.846;.852;.857;.863;.868;.874;.879;.885;.89;.896;.901;.907;.912;.918;.923;.929;.934;.94;.945;.951;.956;.962;.967;.973;.978;.984;.989;1" repeatCount="indefinite" restart="always" type="rotate" values="64.251,0,0;60.695,0,0;57.175,0,0;53.654,0,0;50.134,0,0;46.611,0,0;43.091,0,0;39.38,0,0;35.859,0,0;32.339,0,0;25.088,0,0;18.03,0,0;10.79,0,0;3.555,0,0;-3.298,0,0;-10.008,0,0;-16.536,0,0;-23.066,0,0;-29.598,0,0;-36.324,0,0;-42.862,0,0;-49.4,0,0;-55.936,0,0;-62.661,0,0;-69.195,0,0;-75.724,0,0;-82.25,0,0;-86.696,0,0;-90.762,0,0;-95.019,0,0;-99.278,0,0;-103.54,0,0;-107.804,0,0;-110.817,0,0;-113.829,0,0;-113.829,0,0;-110.545,0,0;-106.809,0,0;-103.25,0,0;-99.528,0,0;-95.797,0,0;-92.256,0,0;-88.712,0,0;-84.985,0,0;-81.442,0,0;-77.709,0,0;-79.979,0,0;-82.25,0,0;-76.733,0,0;-71.217,0,0;-65.694,0,0;-60.172,0,0;-54.648,0,0;-49.122,0,0;-43.594,0,0;-37.88,0,0;-32.356,0,0;-26.83,0,0;-21.31,0,0;-15.791,0,0;-10.276,0,0;-4.761,0,0;.557,0,0;-.025,0,0;-.795,0,0;-1.755,0,0;-2.528,0,0;-3.298,0,0;3.547,0,0;10.773,0,0;17.82,0,0;25.058,0,0;32.11,0,0;39.355,0,0;37.599,0,0;35.846,0,0;34.093,0,0;32.339,0,0;38.858,0,0;45.38,0,0;51.901,0,0;58.418,0,0;64.936,0,0;63.173,0,0;61.408,0,0;59.5,0,0;61.956,0,0;64.46,0,0;66.963,0,0;65.69,0,0;64.414,0,0;62.954,0,0;66.673,0,0;70.205,0,0;68.208,0,0;66.212,0,0;64.251,0,0;64.251,0,0;64.936,0,0;63.173,0,0;61.408,0,0;59.5,0,0;63.209,0,0;66.963,0,0;65.69,0,0;64.414,0,0;62.954,0,0;66.673,0,0;70.205,0,0;67.211,0,0;64.251,0,0;64.251,0,0;64.936,0,0;63.173,0,0;61.408,0,0;59.5,0,0;63.209,0,0;66.963,0,0;65.69,0,0;64.414,0,0;62.954,0,0;66.673,0,0;70.205,0,0;64.251,0,0;64.251,0,0;64.936,0,0;62.195,0,0;59.5,0,0;61.956,0,0;64.46,0,0;66.963,0,0;64.959,0,0;62.954,0,0;65.431,0,0;67.912,0,0;70.205,0,0;64.251,0,0;64.251,0,0;64.67,0,0;64.936,0,0;62.195,0,0;59.5,0,0;61.956,0,0;64.46,0,0;66.963,0,0;64.959,0,0;62.954,0,0;66.673,0,0;70.205,0,0;67.211,0,0;64.251,0,0;64.251,0,0">
			</animateTransform>
		
			<animateTransform  accumulate="none" additive="sum" attributeName="transform" calcMode="linear" dur="7.583s" fill="remove" keyTimes="0;.005;.055;.06;.066;.071;.077;.082;.088;.093;.099;.126;.132;.137;.143;.148;.154;.159;.165;.17;.181;.187;.352;.357;.363;.368;.379;.385;.39;.396;.418;.423;.429;.434;.473;.478;.484;.489;.495;.5;.527;.533;.538;.544;.549;.621;.626;.632;.637;.643;.648;.659;.665;.676;.681;.687;.692;.698;.709;.714;.72;.725;.731;.742;.747;.758;.764;.769;.775;.786;.791;.797;.802;.808;.819;.824;.83;.835;.846;.852;.857;.863;.868;.874;.879;.885;.896;.901;.907;.912;.918;.923;.934;.94;.945;.951;.956;.962;.967;.973;.984;.989;1" repeatCount="indefinite" restart="always" type="scale" values="1,.999;.997,.997;.997,.997;.998,.998;1,.999;1,.999;1,1;1,.999;.998,.998;.998,.998;.997,.997;.997,.997;.998,.998;.998,.998;1,.999;1,1;1,1;1,.999;1,.999;.998,.998;.998,.998;.997,.997;.997,.997;.998,.998;.998,.998;1,.999;1,.999;1,1;1,1;1,.999;1,.999;.998,.998;.998,.998;.997,.997;.997,.997;.998,.998;.998,.998;1,.999;1,.999;1,1;1,1;1,.999;1,.999;.998,.998;.997,.997;.997,.997;.998,.998;.997,.997;.997,.997;.998,.998;.997,.997;.997,.997;.998,.998;.998,.998;.997,.997;1,.999;1,.999;.997,.997;.997,.997;.998,.998;.997,.997;.998,.998;.997,.997;.997,.997;.998,.998;.998,.998;1,.999;1,.999;.997,.997;.997,.997;.998,.998;.997,.997;.998,.998;.997,.997;.997,.997;.998,.998;.998,.998;1,.999;1,.999;.997,.997;.997,.997;.998,.998;.997,.997;.997,.997;.998,.998;.997,.997;.997,.997;.998,.998;.998,.998;1,.999;1,.999;.997,.997;.997,.997;.998,.998;.997,.997;.997,.997;.998,.998;.997,.997;.997,.997;.998,.998;.998,.998;1,.999;1,.999">
			</animateTransform>
		
			<animateTransform  accumulate="none" additive="sum" attributeName="transform" calcMode="linear" dur="7.583s" fill="remove" keyTimes="0;.005;.011;.016;.022;.027;.033;.038;.044;.049;.055;.06;.066;.071;.077;.082;.088;.093;.099;.104;.11;.115;.121;.126;.132;.137;.143;.148;.154;.159;.165;.17;.176;.181;.187;.352;.357;.363;.368;.374;.379;.385;.39;.396;.401;.407;.412;.418;.423;.429;.434;.44;.445;.451;.456;.462;.467;.473;.478;.484;.489;.495;.5;.506;.511;.517;.522;.527;.533;.538;.544;.549;.555;.56;.566;.571;.577;.582;.588;.593;.599;.604;.61;.615;.621;.626;.632;.637;.643;.648;.654;.659;.665;.67;.676;.681;.687;.692;.698;.703;.709;.714;.72;.725;.731;.736;.742;.747;.753;.758;.764;.769;.775;.78;.786;.791;.797;.802;.808;.813;.819;.824;.83;.835;.846;.852;.857;.863;.868;.874;.879;.885;.89;.896;.901;.907;.912;.918;.923;.929;.934;.94;.945;.951;.956;.962;.973;.978;.984;.989;1" repeatCount="indefinite" restart="always" type="translate" values="0,.05;-.1,.05;-.1,.1;-.05,.1;-.05,0;-.1,-.05;-.1,.05;-.05,0;-.15,.05;-.05,0;-.05,.05;-.1,-.05;-.1,0;-.05,-.1;-.1,-.1;0,0;0,-.05;-.05,-.15;-.05,-.05;-.1,-.1;-.05,-.1;-.05,-.05;-.05,-.15;-.1,-.1;.1,-.05;.05,-.1;0,-.1;.1,-.05;0,-.1;.1,-.1;.1,-.1;.05,-.1;.15,-.1;.05,-.05;.1,-.05;.1,-.05;.1,-.1;.05,-.05;.05,-.1;.05,-.05;.05,-.05;.05,-.1;.15,-.1;.05,-.1;.1,-.15;.05,-.05;.15,-.05;0,-.1;0,-.15;.05,-.05;0,-.05;0,-.05;-.15,-.1;-.05,-.05;0,-.1;0,-.05;-.05,0;-.1,-.05;-.1,-.15;-.1,-.1;-.05,-.05;0,-.15;-.1,-.1;-.05,-.1;-.05,-.1;-.15,-.15;-.1,-.1;-.1,-.1;-.05,-.05;-.1,-.1;-.15,-.05;-.05,0;-.05,0;0,0;-.15,-.05;-.05,0;-.1,.05;-.05,0;-.05,.05;-.1,-.05;0,0;-.1,.05;-.05,.05;-.1,.1;-.1,0;-.05,-.05;-.05,.1;-.05,.05;-.1,.05;-.05,.05;-.05,.1;-.05,.05;-.05,.05;-.15,.1;-.15,.05;-.2,.05;-.1,.05;-.1,.05;-.05,.05;-.1,.1;-.1,0;-.05,-.05;-.1,.05;-.1,.05;-.05,.05;-.05,.1;-.05,.05;-.05,.05;-.15,.1;-.15,.05;-.1,.05;-.1,.05;-.05,.05;-.1,.1;-.1,0;-.05,-.05;-.1,.05;-.1,.05;-.05,.05;-.05,.1;-.05,.05;-.05,.05;-.15,.1;-.1,.05;-.1,.05;-.05,.05;-.05,0;-.05,-.05;-.05,.1;-.05,.05;-.1,.05;-.05,.05;-.05,.05;0,.05;-.15,0;-.15,.1;-.1,.05;-.1,.05;-.05,.05;-.05,.05;-.05,0;-.05,-.05;-.05,.1;-.05,.05;-.1,.05;-.05,.05;-.05,.05;-.15,.1;-.15,.05;-.1,.05;-.1,.05">
			</animateTransform>
		<path class="st1" d="M4.1,4.4c0-0.6-0.2-2.2-0.6-4.8L0.7-17.3c-0.5-3-0.9-4.9-1.1-5.7c0-0.5-0.3-1-0.8-1.3
			c-0.4-0.3-0.9-0.5-1.4-0.5s-1.1,0.2-1.4,0.5C-4.4-24-4.7-23.5-4.8-23L-8.6-0.4c-0.5,2.5-0.7,4.1-0.7,4.7c0,1.8,0.7,3.4,2,4.7
			c1.3,1.3,2.8,2,4.7,2c1.8,0,3.5-0.7,4.7-2C3.6,7.8,4.1,6.2,4.1,4.4 M-0.4,2.7l0.1,1.7c0,0.7-0.2,1.2-0.6,1.6
			c-0.5,0.4-1.1,0.6-1.6,0.6s-1.2-0.2-1.6-0.7c-0.4-0.4-0.6-1-0.6-1.6l2.2-14.2L-0.4,2.7z"/>
	</g>
</g>
</svg>
