<?xml version="1.0" encoding="utf-8"?>
<!-- Generator: Adobe Illustrator 13.0.0, SVG Export Plug-In  -->
<!DOCTYPE svg PUBLIC "-//W3C//DTD SVG 1.1//EN" "http://www.w3.org/Graphics/SVG/1.1/DTD/svg11.dtd" [
	<!ENTITY ns_flows "http://ns.adobe.com/Flows/1.0/">
]>
<svg version="1.1"
	 xmlns="http://www.w3.org/2000/svg" xmlns:xlink="http://www.w3.org/1999/xlink" xmlns:a="http://ns.adobe.com/AdobeSVGViewerExtensions/3.0/"
	 x="0px" y="0px" width="200px" height="200px" viewBox="-0.5 -0.5 200 200" enable-background="new -0.5 -0.5 200 200"
	 xml:space="preserve">
<defs>
</defs>
<circle fill="#FFFFFF" cx="97.5" cy="97.5" r="97.5"/>
<path fill="#FF0201" d="M98,83c-9.926,0-18,8.074-18,18c0,9.927,8.074,18,18,18c9.927,0,18-8.073,18-18C116,91.074,107.927,83,98,83
	z M98,113.001c-6.616,0-12-5.383-12-12.001c0-6.619,5.384-12,12-12c6.614,0,12.001,5.381,12.001,12
	C110.001,107.618,104.614,113.001,98,113.001z"/>
<path d="M98,137c-9.926,0-18,8.073-18,18s8.074,18,18,18c9.927,0,18-8.073,18-18S107.927,137,98,137z M98,167.001
	c-6.616,0-12-5.383-12-12.001s5.384-12.001,12-12.001c6.614,0,12.001,5.383,12.001,12.001S104.614,167.001,98,167.001z"/>
<path d="M98,65c9.927,0,18-8.074,18-18s-8.073-18-18-18c-9.926,0-18,8.074-18,18S88.074,65,98,65z M98,35
	c6.614,0,12.001,5.381,12.001,12S104.614,59,98,59c-6.616,0-12-5.382-12-12S91.384,35,98,35z"/>
</svg>
