<?xml version="1.0" encoding="utf-8"?>
<!-- Generator: Adobe Illustrator 13.0.0, SVG Export Plug-In  -->
<!DOCTYPE svg PUBLIC "-//W3C//DTD SVG 1.1//EN" "http://www.w3.org/Graphics/SVG/1.1/DTD/svg11.dtd" [
	<!ENTITY ns_flows "http://ns.adobe.com/Flows/1.0/">
]>
<svg version="1.1"
	 xmlns="http://www.w3.org/2000/svg" xmlns:xlink="http://www.w3.org/1999/xlink" xmlns:a="http://ns.adobe.com/AdobeSVGViewerExtensions/3.0/"
	 x="0px" y="0px" width="200px" height="200px" viewBox="-0.5 -0.5 200 200" enable-background="new -0.5 -0.5 200 200"
	 xml:space="preserve">
<defs>
</defs>
<circle fill="#FFFFFF" cx="97.5" cy="97.5" r="97.5"/>
<path d="M84.322,95.551H61.04c-7.846,0-14.229-6.382-14.229-14.229V58.04c0-7.846,6.382-14.229,14.229-14.229h23.283
	c7.846,0,14.229,6.382,14.229,14.229v23.283C98.551,89.168,92.168,95.551,84.322,95.551z M61.04,50.709
	c-4.042,0-7.33,3.289-7.33,7.33v23.283c0,4.042,3.289,7.33,7.33,7.33h23.283c4.042,0,7.33-3.289,7.33-7.33V58.04
	c0-4.042-3.289-7.33-7.33-7.33H61.04z"/>
<path d="M142.961,95.551h-23.283c-7.846,0-14.229-6.382-14.229-14.229V58.04c0-7.846,6.383-14.229,14.229-14.229h23.283
	c7.846,0,14.229,6.382,14.229,14.229v23.283C157.189,89.168,150.807,95.551,142.961,95.551z M119.678,50.709
	c-4.042,0-7.33,3.289-7.33,7.33v23.283c0,4.042,3.288,7.33,7.33,7.33h23.283c4.041,0,7.329-3.289,7.329-7.33V58.04
	c0-4.042-3.288-7.33-7.329-7.33H119.678z"/>
<path fill="#EC2024" d="M131.319,154.188c-14.265,0-25.87-11.604-25.87-25.869s11.605-25.87,25.87-25.87s25.87,11.605,25.87,25.87
	S145.584,154.188,131.319,154.188z M131.319,109.348c-10.461,0-18.972,8.511-18.972,18.972c0,10.46,8.511,18.971,18.972,18.971
	c10.46,0,18.971-8.511,18.971-18.971C150.29,117.858,141.779,109.348,131.319,109.348z"/>
<path d="M84.322,154.188H61.04c-7.846,0-14.229-6.382-14.229-14.228v-23.283c0-7.846,6.382-14.229,14.229-14.229h23.283
	c7.846,0,14.229,6.383,14.229,14.229v23.283C98.551,147.807,92.168,154.188,84.322,154.188z M61.04,109.348
	c-4.042,0-7.33,3.288-7.33,7.33v23.283c0,4.041,3.289,7.329,7.33,7.329h23.283c4.042,0,7.33-3.288,7.33-7.329v-23.283
	c0-4.042-3.289-7.33-7.33-7.33H61.04z"/>
</svg>
