<?xml version="1.0" encoding="utf-8"?>
<!-- Generator: Adobe Illustrator 13.0.0, SVG Export Plug-In  -->
<!DOCTYPE svg PUBLIC "-//W3C//DTD SVG 1.1//EN" "http://www.w3.org/Graphics/SVG/1.1/DTD/svg11.dtd" [
	<!ENTITY ns_flows "http://ns.adobe.com/Flows/1.0/">
]>
<svg version="1.1"
	 xmlns="http://www.w3.org/2000/svg" xmlns:xlink="http://www.w3.org/1999/xlink" xmlns:a="http://ns.adobe.com/AdobeSVGViewerExtensions/3.0/"
	 x="0px" y="0px" width="200px" height="200px" viewBox="-0.5 -0.5 200 200" enable-background="new -0.5 -0.5 200 200"
	 xml:space="preserve">
<defs>
</defs>
<circle fill="#FFFFFF" cx="97.5" cy="97.5" r="97.5"/>
<path display="none" d="M84.322,95.551H61.04c-7.846,0-14.229-6.382-14.229-14.229V58.04c0-7.846,6.382-14.229,14.229-14.229h23.283
	c7.846,0,14.229,6.382,14.229,14.229v23.283C98.551,89.168,92.168,95.551,84.322,95.551z M61.04,50.709
	c-4.042,0-7.33,3.289-7.33,7.33v23.283c0,4.042,3.289,7.33,7.33,7.33h23.283c4.042,0,7.33-3.289,7.33-7.33V58.04
	c0-4.042-3.289-7.33-7.33-7.33H61.04z"/>
<path display="none" d="M142.961,95.551h-23.283c-7.846,0-14.229-6.382-14.229-14.229V58.04c0-7.846,6.383-14.229,14.229-14.229
	h23.283c7.846,0,14.229,6.382,14.229,14.229v23.283C157.189,89.168,150.807,95.551,142.961,95.551z M119.678,50.709
	c-4.042,0-7.33,3.289-7.33,7.33v23.283c0,4.042,3.288,7.33,7.33,7.33h23.283c4.041,0,7.329-3.289,7.329-7.33V58.04
	c0-4.042-3.288-7.33-7.329-7.33H119.678z"/>
<path display="none" fill="#EC2024" d="M131.319,154.188c-14.265,0-25.87-11.604-25.87-25.869s11.605-25.87,25.87-25.87
	s25.87,11.605,25.87,25.87S145.584,154.188,131.319,154.188z M131.319,109.348c-10.461,0-18.972,8.511-18.972,18.972
	c0,10.46,8.511,18.971,18.972,18.971c10.46,0,18.971-8.511,18.971-18.971C150.29,117.858,141.779,109.348,131.319,109.348z"/>
<path display="none" d="M84.322,154.188H61.04c-7.846,0-14.229-6.382-14.229-14.228v-23.283c0-7.846,6.382-14.229,14.229-14.229
	h23.283c7.846,0,14.229,6.383,14.229,14.229v23.283C98.551,147.807,92.168,154.188,84.322,154.188z M61.04,109.348
	c-4.042,0-7.33,3.288-7.33,7.33v23.283c0,4.041,3.289,7.329,7.33,7.329h23.283c4.042,0,7.33-3.288,7.33-7.329v-23.283
	c0-4.042-3.289-7.33-7.33-7.33H61.04z"/>
<path d="M142.749,50.072H57.25c-6.203,0-11.25,5.047-11.25,11.25v58.97c0,5.944,5.047,10.778,11.25,10.778h28.294l-5.101,13.5
	h-5.195c-1.243,0-2.249,1.008-2.249,2.25c0,1.243,1.006,2.25,2.249,2.25h49.5c1.244,0,2.25-1.007,2.25-2.25
	c0-1.242-1.006-2.25-2.25-2.25h-5.194l-5.101-13.5h28.295c6.202,0,11.249-4.834,11.249-10.778v-58.97
	C153.998,55.119,148.951,50.072,142.749,50.072L142.749,50.072z M114.743,144.57H85.256l5.1-13.5h19.288L114.743,144.57z
	 M149.498,120.292c0,3.462-3.027,6.278-6.749,6.278H57.25c-3.722,0-6.75-2.816-6.75-6.278v-7.221h98.998V120.292z M149.498,108.571
	H50.5v-47.25c0-3.722,3.028-6.75,6.75-6.75h85.499c3.722,0,6.749,3.028,6.749,6.75V108.571z"/>
<path fill="#FF0201" d="M95.5,122.07h9c1.244,0,2.25-1.007,2.25-2.25c0-1.242-1.006-2.25-2.25-2.25h-9
	c-1.244,0-2.25,1.008-2.25,2.25C93.25,121.063,94.256,122.07,95.5,122.07z"/>
</svg>
