<?xml version="1.0" encoding="utf-8"?>
<!-- Generator: Adobe Illustrator 13.0.0, SVG Export Plug-In  -->
<!DOCTYPE svg PUBLIC "-//W3C//DTD SVG 1.1//EN" "http://www.w3.org/Graphics/SVG/1.1/DTD/svg11.dtd" [
	<!ENTITY ns_flows "http://ns.adobe.com/Flows/1.0/">
]>
<svg version="1.1"
	 xmlns="http://www.w3.org/2000/svg" xmlns:xlink="http://www.w3.org/1999/xlink" xmlns:a="http://ns.adobe.com/AdobeSVGViewerExtensions/3.0/"
	 x="0px" y="0px" width="200px" height="200px" viewBox="-0.5 -0.5 200 200" enable-background="new -0.5 -0.5 200 200"
	 xml:space="preserve">
<defs>
</defs>
<circle fill="#FFFFFF" cx="97.5" cy="97.5" r="97.5"/>
<path d="M129.099,74.324c-1.941,0-3.885,0.647-5.396,1.942V44.108c0-5.18-4.102-10.792-9.712-10.792
	c-2.375,0-4.533,1.079-6.044,2.59C106.437,32.237,102.983,29,98.882,29c-2.374,0-4.532,1.079-6.259,2.806
	c-2.159,1.942-3.454,4.964-3.454,7.77c-1.511-1.079-3.453-1.942-5.396-1.942c-5.611,0-9.712,5.612-9.712,10.792v37.123
	c-1.942-4.101-4.533-7.985-7.123-10.575c-3.453-3.453-10.359-3.669-14.244-0.432c-1.079,1.08-4.748,4.964,0.216,11.871
	c4.532,6.475,8.202,20.719,8.202,28.92c0,17.267,11.223,25.037,15.107,27.195v13.813c0,1.294,0.863,2.158,2.158,2.158
	s2.158-0.864,2.158-2.158v-15.107c0-0.863-0.432-1.511-1.295-1.942c-0.647-0.217-13.813-6.476-13.813-23.958
	c0-7.985-3.453-23.741-9.064-31.511c-1.511-1.942-2.806-4.533-0.863-6.043c2.158-1.727,6.475-1.727,8.417,0.216
	c5.396,5.396,10.145,16.833,10.145,22.229c0,1.295,0.863,2.16,2.158,2.16c1.295,0,2.158-0.865,2.158-2.16V48.424
	c0-3.021,2.374-6.474,5.396-6.474s5.396,3.453,5.396,6.474v38.85c0,1.295,0.864,2.158,2.159,2.158c1.295,0,2.158-0.863,2.158-2.158
	V39.792c0-1.727,0.863-3.669,2.158-4.964c0.863-0.864,2.158-1.511,3.237-1.511c3.021,0,5.396,3.453,5.396,6.475v49.641
	c0,1.295,0.863,2.158,2.158,2.158s2.158-0.863,2.158-2.158V44.108c0-3.021,2.375-6.476,5.396-6.476c3.022,0,5.396,3.454,5.396,6.476
	v40.576c0,0.216,0,0.216,0,0.432v8.632c0,1.296,0.863,2.158,2.158,2.158c1.296,0,2.16-0.862,2.16-2.158V84.9
	c0.215-3.022,2.589-6.26,5.395-6.26c3.022,0,5.396,3.454,5.396,6.476v30.215c0,16.403,0,16.403-6.043,24.605
	c-0.433,0.432-0.433,1.079-0.433,1.51v14.893c0,1.294,0.864,2.158,2.159,2.158s2.157-0.864,2.157-2.158v-14.46
	c6.475-8.634,6.475-9.713,6.475-26.548V85.116C138.811,79.936,134.71,74.324,129.099,74.324z"/>
<path fill="#EC2024" d="M106.437,139.072c1.295,0,2.158-0.863,2.158-2.158s-0.863-2.157-2.158-2.157h-6.475
	c-1.295,0-2.158,0.862-2.158,2.157s0.863,2.158,2.158,2.158H106.437z"/>
<path fill="#EC2024" d="M108.595,143.39H97.803c-1.294,0-2.158,0.863-2.158,2.158s0.863,2.158,2.158,2.158h10.792
	c1.295,0,2.157-0.863,2.157-2.158S109.89,143.39,108.595,143.39z"/>
</svg>
