<?xml version="1.0" encoding="utf-8"?>
<!-- Generator: Adobe Illustrator 23.0.3, SVG Export Plug-In . SVG Version: 6.00 Build 0)  -->
<svg version="1.1" id="Layer_1" xmlns="http://www.w3.org/2000/svg" xmlns:xlink="http://www.w3.org/1999/xlink" x="0px" y="0px"
	 viewBox="0 0 306.8 70.8" style="enable-background:new 0 0 306.8 70.8;" xml:space="preserve">
<style type="text/css">
	.st0{fill:#FF0201;}
</style>
<g>
	<circle class="st0" cx="30.9" cy="34.2" r="3.8"/>
	<circle cx="41.9" cy="34.2" r="3.8"/>
	<circle cx="19.8" cy="34.2" r="3.8"/>
</g>
<path d="M30.9,8.8c-14,0-25.4,11.4-25.4,25.4c0,14,11.4,25.4,25.4,25.4s25.4-11.4,25.4-25.4C56.3,20.2,44.9,8.8,30.9,8.8z
	 M30.9,53.9c-10.9,0-19.7-8.8-19.7-19.7S20,14.5,30.9,14.5s19.7,8.8,19.7,19.7S41.8,53.9,30.9,53.9z"/>
<g>
	<path d="M81.8,21.2v32.4H74V21.2H61.5v-7.3h32.9v7.3H81.8z"/>
	<path d="M120.7,39.7c0,8.5-6.2,14.6-14.4,14.6c-8.2,0-14.4-6.2-14.4-14.6c0-8.5,6.2-14.6,14.4-14.6
		C114.5,25.1,120.7,31.2,120.7,39.7z M113.3,39.7c0-5.2-3.4-7.8-7-7.8s-7,2.6-7,7.8c0,5.2,3.4,7.8,7,7.8S113.3,45,113.3,39.7z"/>
	<path d="M142.3,37.6l11.3,16h-9.1L137.1,43l-3.1,3.2v7.3h-7.4V13h7.4v23.2l9.5-10.2h9.7L142.3,37.6z"/>
	<path d="M175.2,21.2v32.4h-7.8V21.2h-12.5v-7.3h32.9v7.3H175.2z"/>
	<path d="M214.1,39.7c0,8.5-6.2,14.6-14.4,14.6c-8.2,0-14.4-6.2-14.4-14.6c0-8.5,6.2-14.6,14.4-14.6
		C207.9,25.1,214.1,31.2,214.1,39.7z M206.6,39.7c0-5.2-3.4-7.8-7-7.8c-3.6,0-7,2.6-7,7.8c0,5.2,3.4,7.8,7,7.8
		C203.3,47.6,206.6,45,206.6,39.7z"/>
	<path d="M242.7,26l5.9,17.8l5.1-17.8h7.4l-8.6,27.6H245l-6.4-18.8l-6.3,18.8h-7.6L215.9,26h7.8l5.1,17.7l6-17.7H242.7z"/>
	<path d="M273.2,53.5h-7.4V26h7.2v3.4c1.7-2.9,5-4.1,8-4.1c6.8,0,10,4.9,10,10.9v17.4h-7.4V37.5c0-3.1-1.5-5.5-5.1-5.5
		c-3.2,0-5.2,2.5-5.2,5.7V53.5z"/>
</g>
</svg>
